<?xml version="1.0" encoding="UTF-8"?>
<svg id="Layer_1" xmlns="http://www.w3.org/2000/svg" xmlns:xlink="http://www.w3.org/1999/xlink" viewBox="0 0 750 648">
  <defs>
    <style>
      .cls-1 {
        fill: #fff;
      }

      .cls-2 {
        fill: none;
      }

      .cls-3 {
        clip-path: url(#clippath-1);
      }

      .cls-4 {
        fill: #ed2323;
      }

      .cls-5 {
        clip-path: url(#clippath);
      }

      .cls-6 {
        opacity: .08;
      }
    </style>
    <clipPath id="clippath">
      <rect class="cls-2" width="750" height="648"/>
    </clipPath>
    <clipPath id="clippath-1">
      <path class="cls-2" d="M708.71,420.8c48.61,28.11,48.61,98.28,0,126.39L-82.46,1004.66c-48.67,28.14-109.54-6.98-109.54-63.2V26.54c0-56.22,60.87-91.34,109.54-63.2l791.16,457.46Z"/>
    </clipPath>
  </defs>
  <g class="cls-5">
    <g>
      <path class="cls-4" d="M708.71,420.8c48.61,28.11,48.61,98.28,0,126.39L-82.46,1004.66c-48.67,28.14-109.54-6.98-109.54-63.2V26.54c0-56.22,60.87-91.34,109.54-63.2l791.16,457.46Z"/>
      <g class="cls-3">
        <g class="cls-6">
          <path class="cls-1" d="M752.42,392.61l-3.55-5.99-63.23,37.47c-9.17-8.11-42.77-37.79-45.64-39.94-2.97-2.22-78.08-51.84-90.24-59.87,23.6-34.94,24.72-78.74,24.76-81.15v-.48s-.11-.47-.11-.47c-.61-2.31-15.15-56.8-36.04-80.33-5.44-6.12-6.4-20.61-2.78-40.95l55.37,7.87,153.01,44.32,3.39-11.7-153.43-44.45-55.85-7.96c8.26-34.77,24.69-69.78,29.75-72.29,11.59-5.03,84.13-48.13,87.22-49.97l-3.56-5.99c-.75.45-75.25,44.71-86.43,49.57-9.48,4.11-26.39,45.92-33.9,77.69l-10.36-1.47c8.21-34.98,24.81-70.39,29.9-72.92,11.59-5.03,84.14-48.13,87.22-49.97l-3.56-5.99c-.75.45-75.25,44.71-86.43,49.57-9.55,4.14-26.61,46.48-34.04,78.32l-35.18-5.01-56.42,19.99-56.64-2.43-33.5-22.63c-19.99-13.47-42.92-28.96-65.63-44.36l20.8-14.39,85.12-128.45-3.14-26.42-12.1,1.44,2.61,21.98-81.35,122.76-22.76,15.74C202.4,7.6,153.06-26.16,149.19-29.67c.34.32.63.7.86,1.1l-10.46,6.24c1.08,1.81,1.94,3.25,94.52,66.15,4.25,2.89,8.51,5.78,12.73,8.64l-63.75,82.26-71.68,44.03c-9.42-8.76-18.3-16.84-26.19-24.02-3.77-3.43-7.39-6.73-10.72-9.79l66.67-57.81.34-.3,31.04-45.67-24.48-18.32-4.17,5.57,19.15,14.33-14.66,21.57-14.25-18.67-5.53,4.23,15.66,20.51-8,11.78-2.43,2.11-19.86-33.14-5.97,3.58,20.5,34.19-59.15,51.28c-5.82-5.41-10.15-9.63-11.83-11.77-12.43-15.84-38.86-62.35-39.12-62.82l-13.63,7.73c1.11,1.95,27.27,48.01,40.43,64.76,3.8,4.85,14.02,14.15,29.48,28.22,6.75,6.14,14.51,13.21,22.86,20.96l-68.27,41.93-10.84,13.77c-21.73-35.28-37.35-60.18-38.81-61.27l-4.17,5.58c-.15-.11-.28-.23-.4-.37,1.9,2.24,17.78,27.75,38.78,61.9l-28.1,35.69-24.86,10.78,2.77,6.39,13.01-5.64-51.62,65.55,9.57,7.54L.2,285.82l27.03-11.73,1.5-.97c19.75,32.22,41.82,68.43,60.56,99.24l-31.36,8.13-138.43,96.07,6.95,10.01,51.14-35.49,36.81,62.51,19.39,37.66-68.71,11.99c-2.36-5.88-8.38-20.73-14.71-35.51-17.11-39.88-19.68-40.35-22.17-40.8l-1.24,6.85c-.38-.06-.74-.21-1.05-.44,3.62,3.23,18.87,37.98,32.16,71.11l-46.56,8.12,1.2,6.86,47.38-8.27,6.01,33.05,36.61,27.4-32.89,124.34,6.73,1.78,32.48-122.83,94.39,37.5-2.4,13.31L15.49,866.17l6.29,2.98,85.94-181.28,2.32-12.83,45.82,18.21c-37.51,58.17-91.36,153.46-94.42,158.87l6.06,3.42c.99-1.75,97.07-171.77,122.32-197.91-12.04,22.11-21.15,40.26-26.3,53.61-36.49,58.21-82.15,139-84.96,143.97l6.06,3.42c.63-1.1,39.13-69.24,73.8-125.94-.6,6.55-1.39,13.34-2.15,19.96-3.49,29.95-6.79,58.23,4.64,74.7,12.78,18.41,79.8,92.09,82.65,95.22l11.59-10.55c-.69-.76-69.17-76.03-81.36-93.61-8.05-11.6-4.95-38.22-1.95-63.96.96-8.22,1.95-16.71,2.59-24.85.79-10.04,13.69-36.17,30.05-66.16,1.26-1.52,2.62-2.96,4.07-4.31,16.21-14.39,77.4-69.58,121.43-111.92,2.51,5.96,4.17,10.55,4.7,13.33,1.73,9.07-10.25,60.03-19.87,100.98-20.12,85.63-28.88,127.3-22.34,139.39,2.11,3.91,7.54,12.91,14.9,24.85l-55.97,58.99,5.05,4.79,54.7-57.65c15,24.25,36.08,57.75,54.08,86.25-4.36,4.77-7.13,7.72-7.84,8.33.06-.05.11-.09.15-.11l3.97,5.72c.57-.4,3.26-3.21,7.55-7.87,17.09,27.04,30.63,48.35,32.09,50.65l13.22-8.4c-.38-.6-15.51-24.4-34.37-54.26,24.38-26.94,67.79-75.78,99.91-111.99l69.88,62.62c-22.74,26.33-57.92,66.35-62,69.09.19-.12.4-.21.61-.27l1.96,6.68c1.55-.45,3.3-.97,35.67-37.69,12.1-13.73,24.05-27.51,28.94-33.17l87.95,78.81,4.65-5.19-52.05-46.64,52.62-51.89,30.35,28.44,7.14-7.62-77.15-72.31-.24-.22-45.64-33.29,24.38-24.7,84.81,82.34,4.85-4.99-89.77-87.17-29.96,30.37-.03-.02-47.86-55.19,33.77-20.86,36.72,1.35,21.51-10.6h0s.01,0,.01,0l22.18-10.93,65.04,41.08,3.72-5.89-68.33-43.16-15.8,7.78,71.63-117.09c14.18,36.86,27.87,71.59,28.02,71.96l6.48-2.56c-.16-.4-15.94-40.44-31.17-80.17-21.8-56.89-27.31-73.56-28.56-78.36l28.95-17.16,32.06,105.1,6.66-2.03-32.55-106.72,63.06-37.37ZM679.35,427.82l-71.94,42.63-29.86-38.86,38.29-12.72,13.43-33.6c3.75,2.51,6.14,4.12,6.58,4.45,2.06,1.54,25.93,22.55,43.52,38.1ZM623.33,381.34l-12.77,31.96-44.52,14.78,35.32,45.96-9.08,5.38-35.58,21.09-.66.39-11.78,17.03-27.78,10.51-6.16,3.78-45.02-134.4c19.05-18.36,38.25-34.68,54.54-44.57,9.97-6.11,18.72-14.01,25.81-23.3,18.81,12.42,57.62,38.08,77.65,51.41h0ZM354.82,522.79c10.44-10.59,18.05-18.93,21.05-23.48,10.05-15.22,46.1-58.85,83.92-96.12l44.46,132.74-104.84,64.28-44.59-77.42ZM112.3,623.28l-51.01-28,3.97-10.05,49.84,22.53-2.8,15.51ZM116.99,597.32l-.61,3.38-48.55-21.95,4.35-11.03,45.89,8.29-1.09,21.3ZM78.8,550.97c16.03,1.16,33.52,3.61,40.24,6.08l-.61,11.95-43.64-7.88,4.01-10.15ZM100.02,546.15c-7.57-1-15.04-1.66-19.41-2.01l7.65-42.38,33.25,6.7-2.11,41.46c-4.12-1.29-10.23-2.56-19.38-3.77h0ZM135.36,373l95.01-24.64c1.63,3.18,3.23,6.33,4.81,9.47l-1.71,14.67-54.85,50.04c-18.61-2.72-38.85-5.95-45.4-7.44l2.14-42.11ZM138.4,295.79c-.13-.16-13.19-16.26-26.35-32.03-7.74-9.28-14.01-16.63-18.63-21.86-2.63-2.97-4.61-5.17-6.2-6.8l36.08-23.45c35.01,33.92,73.31,74.79,92.99,110.34,2.83,5.1,5.59,10.2,8.28,15.28l-88.56,22.97,3.23-63.41-.83-1.04ZM465.6,219.65c-8-.97-26.45-3.22-31.16-3.92-.62-.89-1.16-1.83-1.64-2.8l37.36-30.73-4.56,37.46ZM432.37,222.44c3.24.59,27.9,3.58,32.39,4.12l-4.48,36.82-14.97,11.81-13.12-12.88-66.52,31.91-13.19-19.54,8.56-2.72,66.34-54.58c2.69,4.64,4,4.88,4.99,5.06h0ZM304.88,331.57l26.77,33.27-8.72,6.87-30.09-32.09,12.05-8.05ZM337.11,360.52l-26.05-32.38,52.2-25.04,16.21,24.02-42.36,33.4ZM303.86,323.87l-51.1,34.15c-2.68-5.46-5.42-10.9-8.21-16.32l84.35-59.51,16.65-5.3,13.76,20.38-55.45,26.6ZM286.96,343.54l30.47,32.5-41.26,32.54c-.9-1.63-1.62-2.92-2.13-3.83-5.45-13.11-11.61-26.74-18.21-40.41l31.12-20.8ZM322.22,381.14l1.29,1.38.2.21,73.16,55.67c-20.94,23.5-37.58,44.36-43.93,53.99-2.85,4.32-10.29,12.43-20.53,22.79-16.92-34.78-41.34-79.61-52.82-100.42l42.63-33.62ZM401.53,433.2l-73.14-55.66-.68-.73,83.43-65.8,40.86,70.59c-17.35,16.11-34.91,34.38-50.47,51.6h0ZM384.95,322.8l-15.34-22.74,61.19-29.35,9,8.83-54.84,43.26ZM355.1,261.07l-9.73,3.1-18.8-27.86c29.73-16.54,61.12-33.92,88.15-48.84,2.88,7.84,5.26,13.89,7.25,18.59l-66.86,55.01ZM338.46,266.37l-15.04,4.79-84.55,59.65c-2.93-5.53-5.89-11-8.88-16.39-3.2-5.78-6.84-11.66-10.82-17.58,11.58-7.02,53.75-30.68,101.29-57.13l18,26.66ZM314.4,235.11c-68.84,38.31-91.46,51.29-99.15,56.02-7.79-11.07-16.69-22.27-26.24-33.38l88.46-81.74,39.08,57.9c-.72.4-1.43.8-2.15,1.2h0ZM240.84,369.34c7.24,14.96,13.72,29.4,19.27,42.86l-13.46,25.57-11.58,64.08-10.46,6.38,16.23-138.89ZM296.8,479.75c8.89,16.94,17.25,33.36,23.86,47.11-23.65,23.18-55.82,53.07-83.1,78.05,2.72-4.72,5.4-9.35,7.99-13.82,30.24-52.31,48.89-84.98,51.04-96.86.73-4.79.8-9.66.21-14.46h0ZM335.6,521.81c11.51-11.59,19.95-20.75,23.15-25.59,11.13-16.85,54.11-68.52,96.1-107.82l2.52,7.51c-39.18,38.25-76.91,83.85-87.29,99.57-3.76,5.7-15.5,18-31.16,33.39-1.05-2.28-2.15-4.63-3.31-7.05h0ZM533.16,166.49c18.79,21.17,32.89,71.53,34.39,77-.24,6.37-3.91,75.05-51.28,103.79-15.98,9.7-34.7,25.46-53.36,43.28l-2.46-7.34c14.91-13.57,29.5-25.32,42.3-33.08,52.69-31.98,54.59-106.92,54.65-110.1v-.48s-.11-.47-.11-.47c-.61-2.31-15.15-56.8-36.04-80.33-5.38-6.06-6.38-20.3-2.9-40.3l10.35,1.47c-4.09,22.93-2.6,38.58,4.47,46.55h0ZM191.35,143.95l65.59-84.63c36.55,24.78,68.03,45.99,68.4,46.24l36.35,24.55,62.44,2.68,55.83-19.78,31.48,4.47c-3.95,22.59-2.42,38.01,4.59,45.91,18.79,21.17,32.89,71.53,34.39,77-.24,6.37-3.92,75.05-51.28,103.79-12.7,7.71-27.12,19.24-41.88,32.6l-40.59-70.13,50.18-39.58,11.11-91.3,2.08-1.71,4.73-26.18-11.99-2.17-3.93,21.79-41.2,33.89c-2.54-6.15-5.33-13.39-7.76-20.12l-1.38-3.84-3.57,1.97c-.47.26-45.29,25-92.26,51.11l-43.96-65.13-94.26,87.1c-20.26-23.03-42.96-45.45-63.82-65.09l70.73-43.44ZM37.49,238.46l69.28-42.56c3.72,3.49,7.51,7.09,11.37,10.79l-87.19,56.68-5.73-9.33,12.26-15.57ZM23.93,267.94l-14.65,6.36,11.35-14.41c1.47,2.4,2.96,4.83,4.47,7.29l-1.17.76ZM34.6,269.31l46.66-30.33c7.01,6.78,33.81,39.11,50.89,60.16l-3.2,62.93-32.62,8.46c-20.55-33.81-42.49-69.81-61.74-101.22h0ZM128.3,374.83l-6.43,126.59-36.41-7.33-26.03,5.45,18.15-55.38-18.96-49.32,4.47-3.1,65.21-16.91ZM52.74,398.93l17.45,45.42-18.63,56.84-32.39,6.78-35.85-60.88,69.41-48.16ZM22.63,514.36l58.49-12.25-7.62,42.2-32.53,5.67-18.34-35.62ZM-33.05,569.97l67.92-11.85-4.62,29.7-24.45,37.4-33.33-24.94-5.51-30.31ZM11.93,628.57l24.97-38.2,5.21-33.52,28.87-5.04-18.41,46.61,58.43,32.08-6.31,34.92-92.76-36.86ZM123.88,598.34l2.14-42.09,1.85-.76c-.37-.9-.95-1.69-1.7-2.31l2.54-49.83.11-.53-.08-.02,1.08-21.34,47.37,7.98,1.16-6.87-48.17-8.11,2.66-52.32c6.57,1.56,19.75,3.66,46.39,7.53l1.63.23,51.36-46.85-15.27,130.65-77.95,118.46-8.39,43.56-19.33-7.68,12.59-69.71ZM186.8,650.86c-5.55,4.93-15.34,18.52-27.07,36.43l-22.51-8.94,8.38-43.5,77.22-117.35,18.56-11.33,11.94-66.11,10.22-19.41c12.98,32.86,19.8,58.89,17.65,70.77-1.77,9.8-26.96,53.37-49.18,91.81-11.65,20.15-22.36,38.78-31.79,55.61-5.86,5.28-10.48,9.41-13.4,12.01h0ZM215.48,643.61c3.52-6.27,7.11-12.59,10.69-18.86,29.24-26.58,69.03-63.25,97.65-91.25,1.14,2.43,2.2,4.74,3.19,6.93-36.75,35.39-86.8,80.93-111.52,103.17h0ZM306.3,793.59c-.58-1.64-1.77-9.62,5.18-45.29,4.43-22.72,10.87-50.4,17.25-77.58l44.2,7.98,1.24-6.85-43.84-7.92c13.7-58.3,21.95-94.65,19.73-106.32-.87-4.56-3.83-12.32-8.11-22.01,1.79-1.75,3.53-3.47,5.23-5.16l50.24,87.23,33.12,5.98,32.76,37.77-144.79,152.59c-5.99-9.77-10.37-17.06-12.21-20.44h0ZM438.58,697.61l64.69,65.78c-7.57,8.55-15.63,17.65-23.92,26.99l-69.61-62.37,28.84-30.39ZM376.15,906.12c-18.39-29.14-39.5-62.71-53.86-85.96l82.65-87.11,69.78,62.53c-36.19,40.78-75.83,85.31-98.58,110.54h0ZM549.77,761.16l51.8,37.78,41.48,38.88-52.73,52-105.79-94.8c10.61-11.97,19.72-22.25,26.1-29.46l2.16-2.43-69.41-70.58,24.51-25.83,81.5,93.99.39.45ZM475.38,659.43l26.21-23.35,34.82,37.05-32.01,19.77-29.02-33.47ZM578.02,671.69l-34.59-1.27-41.4-44.04-31.2,27.79-34.8-40.13-31.97-5.78-1.16-2.02,116.69-71.54,29.18-11.04,12.16-17.56,34.18-20.26,45.54,104.2-44.49,72.72-18.14,8.93ZM676.3,531.64l.03.08-31.25,51.08-43.94-100.53,46.91-27.8c.27.91.59,1.89.93,2.96,1.39,4.34,3.56,10.62,6.47,18.66,4.88,13.5,11.9,32.2,20.85,55.56h0ZM464.51,558.43l-5.9,3.69-27.46-43.88,5.9-3.69,27.46,43.88ZM527.23,313.3l-36.44-34.4,14.47-38.61,6.52,2.45-12.85,34.28,33.08,31.23-4.78,5.06Z"/>
        </g>
      </g>
    </g>
  </g>
</svg>