<?xml version="1.0" encoding="UTF-8"?>
<svg xmlns="http://www.w3.org/2000/svg" version="1.1" xmlns:xlink="http://www.w3.org/1999/xlink" viewBox="0 0 1353.6 1456.3">
  <defs>
    <style>
      .cls-1 {
        opacity: 0;
      }

      .cls-2 {
        fill: #fff;
      }

      .cls-3 {
        fill: none;
      }

      .cls-4 {
        fill: #ed2323;
      }

      .cls-5 {
        clip-path: url(#clippath);
      }
    </style>
    <clipPath id="clippath">
      <path class="cls-3" d="M301.5,912.9c-52-11-72.5-74.2-36.9-113.7L904.4,88.8c35.5-39.5,100.5-25.7,116.9,24.8l295.4,909.2c16.4,50.5-28,99.9-80,88.8l-935.2-198.7Z"/>
    </clipPath>
  </defs>
  <!-- Generator: Adobe Illustrator 28.6.0, SVG Export Plug-In . SVG Version: 1.2.0 Build 709)  -->
  <g>
    <g id="Layer_1">
      <g>
        <path class="cls-4" d="M301.5,912.9c-52-11-72.5-74.2-36.9-113.7L904.4,88.8c35.5-39.5,100.5-25.7,116.9,24.8l295.4,909.2c16.4,50.5-28,99.9-80,88.8l-935.2-198.7Z"/>
        <g class="cls-5">
          <g class="cls-1">
            <path class="cls-2" d="M1228.3,654.4l-3.6-6-63.2,37.5c-9.2-8.1-42.8-37.8-45.6-39.9-3-2.2-78.1-51.8-90.2-59.9,23.6-34.9,24.7-78.7,24.8-81.1v-.5s-.1-.5-.1-.5c-.6-2.3-15.2-56.8-36-80.3-5.4-6.1-6.4-20.6-2.8-40.9l55.4,7.9,153,44.3,3.4-11.7-153.4-44.4-55.9-8c8.3-34.8,24.7-69.8,29.7-72.3,11.6-5,84.1-48.1,87.2-50l-3.6-6c-.8.4-75.2,44.7-86.4,49.6-9.5,4.1-26.4,45.9-33.9,77.7l-10.4-1.5c8.2-35,24.8-70.4,29.9-72.9,11.6-5,84.1-48.1,87.2-50l-3.6-6c-.8.4-75.2,44.7-86.4,49.6-9.5,4.1-26.6,46.5-34,78.3l-35.2-5-56.4,20-56.6-2.4-33.5-22.6c-20-13.5-42.9-29-65.6-44.4l20.8-14.4,85.1-128.4-3.1-26.4-12.1,1.4,2.6,22-81.3,122.8-22.8,15.7c-53.3-36.2-102.6-69.9-106.5-73.4.3.3.6.7.9,1.1l-10.5,6.2c1.1,1.8,1.9,3.2,94.5,66.2,4.3,2.9,8.5,5.8,12.7,8.6l-63.8,82.3-71.7,44c-9.4-8.8-18.3-16.8-26.2-24-3.8-3.4-7.4-6.7-10.7-9.8l66.7-57.8.3-.3,31-45.7-24.5-18.3-4.2,5.6,19.2,14.3-14.7,21.6-14.3-18.7-5.5,4.2,15.7,20.5-8,11.8-2.4,2.1-19.9-33.1-6,3.6,20.5,34.2-59.1,51.3c-5.8-5.4-10.2-9.6-11.8-11.8-12.4-15.8-38.9-62.4-39.1-62.8l-13.6,7.7c1.1,2,27.3,48,40.4,64.8,3.8,4.9,14,14.1,29.5,28.2,6.7,6.1,14.5,13.2,22.9,21l-68.3,41.9-10.8,13.8c-21.7-35.3-37.4-60.2-38.8-61.3l-4.2,5.6c-.1-.1-.3-.2-.4-.4,1.9,2.2,17.8,27.7,38.8,61.9l-28.1,35.7-24.9,10.8,2.8,6.4,13-5.6-51.6,65.6,9.6,7.5,65.6-83.3,27-11.7,1.5-1c19.7,32.2,41.8,68.4,60.6,99.2l-31.4,8.1-138.4,96.1,6.9,10,51.1-35.5,36.8,62.5,19.4,37.7-68.7,12c-2.4-5.9-8.4-20.7-14.7-35.5-17.1-39.9-19.7-40.3-22.2-40.8l-1.2,6.9c-.4,0-.7-.2-1.1-.4,3.6,3.2,18.9,38,32.2,71.1l-46.6,8.1,1.2,6.9,47.4-8.3,6,33.1,36.6,27.4-32.9,124.3,6.7,1.8,32.5-122.8,94.4,37.5-2.4,13.3-85.5,180.4,6.3,3,85.9-181.3,2.3-12.8,45.8,18.2c-37.5,58.2-91.4,153.5-94.4,158.9l6.1,3.4c1-1.8,97.1-171.8,122.3-197.9-12,22.1-21.1,40.3-26.3,53.6-36.5,58.2-82.1,139-85,144l6.1,3.4c.6-1.1,39.1-69.2,73.8-125.9-.6,6.6-1.4,13.3-2.2,20-3.5,29.9-6.8,58.2,4.6,74.7,12.8,18.4,79.8,92.1,82.6,95.2l11.6-10.5c-.7-.8-69.2-76-81.4-93.6-8.1-11.6-5-38.2-2-64,1-8.2,1.9-16.7,2.6-24.8.8-10,13.7-36.2,30.1-66.2,1.3-1.5,2.6-3,4.1-4.3,16.2-14.4,77.4-69.6,121.4-111.9,2.5,6,4.2,10.5,4.7,13.3,1.7,9.1-10.2,60-19.9,101-20.1,85.6-28.9,127.3-22.3,139.4,2.1,3.9,7.5,12.9,14.9,24.9l-56,59,5.1,4.8,54.7-57.7c15,24.2,36.1,57.7,54.1,86.3-4.4,4.8-7.1,7.7-7.8,8.3,0,0,.1,0,.2-.1l4,5.7c.6-.4,3.3-3.2,7.5-7.9,17.1,27,30.6,48.3,32.1,50.6l13.2-8.4c-.4-.6-15.5-24.4-34.4-54.3,24.4-26.9,67.8-75.8,99.9-112l69.9,62.6c-22.7,26.3-57.9,66.3-62,69.1.2-.1.4-.2.6-.3l2,6.7c1.5-.5,3.3-1,35.7-37.7,12.1-13.7,24-27.5,28.9-33.2l87.9,78.8,4.6-5.2-52.1-46.6,52.6-51.9,30.3,28.4,7.1-7.6-77.2-72.3-.2-.2-45.6-33.3,24.4-24.7,84.8,82.3,4.9-5-89.8-87.2-30,30.4h0s-47.9-55.2-47.9-55.2l33.8-20.9,36.7,1.4,21.5-10.6h0s0,0,0,0l22.2-10.9,65,41.1,3.7-5.9-68.3-43.2-15.8,7.8,71.6-117.1c14.2,36.9,27.9,71.6,28,72l6.5-2.6c-.2-.4-15.9-40.4-31.2-80.2-21.8-56.9-27.3-73.6-28.6-78.4l29-17.2,32.1,105.1,6.7-2-32.6-106.7,63.1-37.4ZM1155.2,689.6l-71.9,42.6-29.9-38.9,38.3-12.7,13.4-33.6c3.8,2.5,6.1,4.1,6.6,4.4,2.1,1.5,25.9,22.6,43.5,38.1ZM1099.2,643.1l-12.8,32-44.5,14.8,35.3,46-9.1,5.4-35.6,21.1-.7.4-11.8,17-27.8,10.5-6.2,3.8-45-134.4c19-18.4,38.2-34.7,54.5-44.6,10-6.1,18.7-14,25.8-23.3,18.8,12.4,57.6,38.1,77.7,51.4h0ZM830.7,784.6c10.4-10.6,18-18.9,21-23.5,10.1-15.2,46.1-58.9,83.9-96.1l44.5,132.7-104.8,64.3-44.6-77.4ZM588.2,885.1l-51-28,4-10,49.8,22.5-2.8,15.5ZM592.9,859.1l-.6,3.4-48.6-22,4.4-11,45.9,8.3-1.1,21.3ZM554.7,812.8c16,1.2,33.5,3.6,40.2,6.1l-.6,12-43.6-7.9,4-10.2ZM575.9,808c-7.6-1-15-1.7-19.4-2l7.7-42.4,33.2,6.7-2.1,41.5c-4.1-1.3-10.2-2.6-19.4-3.8h0ZM611.2,634.8l95-24.6c1.6,3.2,3.2,6.3,4.8,9.5l-1.7,14.7-54.8,50c-18.6-2.7-38.8-6-45.4-7.4l2.1-42.1ZM614.3,557.6c-.1-.2-13.2-16.3-26.4-32-7.7-9.3-14-16.6-18.6-21.9-2.6-3-4.6-5.2-6.2-6.8l36.1-23.5c35,33.9,73.3,74.8,93,110.3,2.8,5.1,5.6,10.2,8.3,15.3l-88.6,23,3.2-63.4-.8-1ZM941.5,481.5c-8-1-26.4-3.2-31.2-3.9-.6-.9-1.2-1.8-1.6-2.8l37.4-30.7-4.6,37.5ZM908.2,484.2c3.2.6,27.9,3.6,32.4,4.1l-4.5,36.8-15,11.8-13.1-12.9-66.5,31.9-13.2-19.5,8.6-2.7,66.3-54.6c2.7,4.6,4,4.9,5,5.1h0ZM780.8,593.4l26.8,33.3-8.7,6.9-30.1-32.1,12-8ZM813,622.3l-26.1-32.4,52.2-25,16.2,24-42.4,33.4ZM779.7,585.7l-51.1,34.1c-2.7-5.5-5.4-10.9-8.2-16.3l84.4-59.5,16.7-5.3,13.8,20.4-55.5,26.6ZM762.8,605.3l30.5,32.5-41.3,32.5c-.9-1.6-1.6-2.9-2.1-3.8-5.5-13.1-11.6-26.7-18.2-40.4l31.1-20.8ZM798.1,642.9l1.3,1.4.2.2,73.2,55.7c-20.9,23.5-37.6,44.4-43.9,54-2.8,4.3-10.3,12.4-20.5,22.8-16.9-34.8-41.3-79.6-52.8-100.4l42.6-33.6ZM877.4,695l-73.1-55.7-.7-.7,83.4-65.8,40.9,70.6c-17.3,16.1-34.9,34.4-50.5,51.6h0ZM860.8,584.6l-15.3-22.7,61.2-29.4,9,8.8-54.8,43.3ZM831,522.9l-9.7,3.1-18.8-27.9c29.7-16.5,61.1-33.9,88.1-48.8,2.9,7.8,5.3,13.9,7.2,18.6l-66.9,55ZM814.3,528.2l-15,4.8-84.6,59.7c-2.9-5.5-5.9-11-8.9-16.4-3.2-5.8-6.8-11.7-10.8-17.6,11.6-7,53.7-30.7,101.3-57.1l18,26.7ZM790.3,496.9c-68.8,38.3-91.5,51.3-99.2,56-7.8-11.1-16.7-22.3-26.2-33.4l88.5-81.7,39.1,57.9c-.7.4-1.4.8-2.1,1.2h0ZM716.7,631.1c7.2,15,13.7,29.4,19.3,42.9l-13.5,25.6-11.6,64.1-10.5,6.4,16.2-138.9ZM772.7,741.6c8.9,16.9,17.2,33.4,23.9,47.1-23.6,23.2-55.8,53.1-83.1,78,2.7-4.7,5.4-9.3,8-13.8,30.2-52.3,48.9-85,51-96.9.7-4.8.8-9.7.2-14.5h0ZM811.5,783.6c11.5-11.6,19.9-20.8,23.1-25.6,11.1-16.9,54.1-68.5,96.1-107.8l2.5,7.5c-39.2,38.3-76.9,83.9-87.3,99.6-3.8,5.7-15.5,18-31.2,33.4-1.1-2.3-2.2-4.6-3.3-7.1h0ZM1009,428.3c18.8,21.2,32.9,71.5,34.4,77-.2,6.4-3.9,75-51.3,103.8-16,9.7-34.7,25.5-53.4,43.3l-2.5-7.3c14.9-13.6,29.5-25.3,42.3-33.1,52.7-32,54.6-106.9,54.6-110.1v-.5s-.1-.5-.1-.5c-.6-2.3-15.2-56.8-36-80.3-5.4-6.1-6.4-20.3-2.9-40.3l10.3,1.5c-4.1,22.9-2.6,38.6,4.5,46.5h0ZM667.2,405.8l65.6-84.6c36.5,24.8,68,46,68.4,46.2l36.3,24.5,62.4,2.7,55.8-19.8,31.5,4.5c-3.9,22.6-2.4,38,4.6,45.9,18.8,21.2,32.9,71.5,34.4,77-.2,6.4-3.9,75-51.3,103.8-12.7,7.7-27.1,19.2-41.9,32.6l-40.6-70.1,50.2-39.6,11.1-91.3,2.1-1.7,4.7-26.2-12-2.2-3.9,21.8-41.2,33.9c-2.5-6.1-5.3-13.4-7.8-20.1l-1.4-3.8-3.6,2c-.5.3-45.3,25-92.3,51.1l-44-65.1-94.3,87.1c-20.3-23-43-45.4-63.8-65.1l70.7-43.4ZM513.4,500.3l69.3-42.6c3.7,3.5,7.5,7.1,11.4,10.8l-87.2,56.7-5.7-9.3,12.3-15.6ZM499.8,529.7l-14.7,6.4,11.3-14.4c1.5,2.4,3,4.8,4.5,7.3l-1.2.8ZM510.5,531.1l46.7-30.3c7,6.8,33.8,39.1,50.9,60.2l-3.2,62.9-32.6,8.5c-20.6-33.8-42.5-69.8-61.7-101.2h0ZM604.2,636.6l-6.4,126.6-36.4-7.3-26,5.4,18.2-55.4-19-49.3,4.5-3.1,65.2-16.9ZM528.6,660.7l17.5,45.4-18.6,56.8-32.4,6.8-35.8-60.9,69.4-48.2ZM498.5,776.2l58.5-12.2-7.6,42.2-32.5,5.7-18.3-35.6ZM442.8,831.8l67.9-11.8-4.6,29.7-24.4,37.4-33.3-24.9-5.5-30.3ZM487.8,890.4l25-38.2,5.2-33.5,28.9-5-18.4,46.6,58.4,32.1-6.3,34.9-92.8-36.9ZM599.8,860.1l2.1-42.1,1.9-.8c-.4-.9-1-1.7-1.7-2.3l2.5-49.8v-.5c.1,0,0,0,0,0l1.1-21.3,47.4,8,1.2-6.9-48.2-8.1,2.7-52.3c6.6,1.6,19.8,3.7,46.4,7.5l1.6.2,51.4-46.9-15.3,130.7-78,118.5-8.4,43.6-19.3-7.7,12.6-69.7ZM662.7,912.7c-5.6,4.9-15.3,18.5-27.1,36.4l-22.5-8.9,8.4-43.5,77.2-117.3,18.6-11.3,11.9-66.1,10.2-19.4c13,32.9,19.8,58.9,17.7,70.8-1.8,9.8-27,53.4-49.2,91.8-11.7,20.2-22.4,38.8-31.8,55.6-5.9,5.3-10.5,9.4-13.4,12h0ZM691.4,905.4c3.5-6.3,7.1-12.6,10.7-18.9,29.2-26.6,69-63.2,97.6-91.3,1.1,2.4,2.2,4.7,3.2,6.9-36.7,35.4-86.8,80.9-111.5,103.2h0ZM782.2,1055.4c-.6-1.6-1.8-9.6,5.2-45.3,4.4-22.7,10.9-50.4,17.3-77.6l44.2,8,1.2-6.9-43.8-7.9c13.7-58.3,22-94.7,19.7-106.3-.9-4.6-3.8-12.3-8.1-22,1.8-1.8,3.5-3.5,5.2-5.2l50.2,87.2,33.1,6,32.8,37.8-144.8,152.6c-6-9.8-10.4-17.1-12.2-20.4h0ZM914.5,959.4l64.7,65.8c-7.6,8.6-15.6,17.6-23.9,27l-69.6-62.4,28.8-30.4ZM852,1167.9c-18.4-29.1-39.5-62.7-53.9-86l82.7-87.1,69.8,62.5c-36.2,40.8-75.8,85.3-98.6,110.5h0ZM1025.6,1023l51.8,37.8,41.5,38.9-52.7,52-105.8-94.8c10.6-12,19.7-22.2,26.1-29.5l2.2-2.4-69.4-70.6,24.5-25.8,81.5,94,.4.4ZM951.3,921.2l26.2-23.3,34.8,37-32,19.8-29-33.5ZM1053.9,933.5l-34.6-1.3-41.4-44-31.2,27.8-34.8-40.1-32-5.8-1.2-2,116.7-71.5,29.2-11,12.2-17.6,34.2-20.3,45.5,104.2-44.5,72.7-18.1,8.9ZM1152.2,793.4h0c0,0-31.2,51.2-31.2,51.2l-43.9-100.5,46.9-27.8c.3.9.6,1.9.9,3,1.4,4.3,3.6,10.6,6.5,18.7,4.9,13.5,11.9,32.2,20.9,55.6h0ZM940.4,820.2l-5.9,3.7-27.5-43.9,5.9-3.7,27.5,43.9ZM1003.1,575.1l-36.4-34.4,14.5-38.6,6.5,2.4-12.8,34.3,33.1,31.2-4.8,5.1Z"/>
          </g>
        </g>
      </g>
    </g>
  </g>
</svg>